<mxfile host="app.diagrams.net" agent="Mozilla/5.0 (X11; Linux x86_64; rv:109.0) Gecko/20100101 Firefox/115.0" version="24.7.14">
  <diagram id="prtHgNgQTEPvFCAcTncT" name="Page-1">
    <mxGraphModel dx="1434" dy="766" grid="1" gridSize="10" guides="1" tooltips="1" connect="1" arrows="1" fold="1" page="1" pageScale="1" pageWidth="827" pageHeight="1169" math="0" shadow="0">
      <root>
        <mxCell id="0" />
        <mxCell id="1" parent="0" />
        <mxCell id="dPzqS-fyV155BRYKb9yv-1" value="Cliente" style="shape=umlActor;verticalLabelPosition=bottom;verticalAlign=top;html=1;outlineConnect=0;" vertex="1" parent="1">
          <mxGeometry x="210" y="280" width="30" height="60" as="geometry" />
        </mxCell>
        <mxCell id="dPzqS-fyV155BRYKb9yv-2" value="Técnico" style="shape=umlActor;verticalLabelPosition=bottom;verticalAlign=top;html=1;outlineConnect=0;" vertex="1" parent="1">
          <mxGeometry x="210" y="400" width="30" height="60" as="geometry" />
        </mxCell>
        <mxCell id="dPzqS-fyV155BRYKb9yv-3" value="" style="rounded=0;whiteSpace=wrap;html=1;" vertex="1" parent="1">
          <mxGeometry x="280" y="92.5" width="420" height="625" as="geometry" />
        </mxCell>
        <mxCell id="dPzqS-fyV155BRYKb9yv-16" style="rounded=0;orthogonalLoop=1;jettySize=auto;html=1;exitX=1;exitY=0.5;exitDx=0;exitDy=0;entryX=0;entryY=0.5;entryDx=0;entryDy=0;endArrow=classic;endFill=1;dashed=1;" edge="1" parent="1" source="dPzqS-fyV155BRYKb9yv-4" target="dPzqS-fyV155BRYKb9yv-14">
          <mxGeometry relative="1" as="geometry" />
        </mxCell>
        <mxCell id="dPzqS-fyV155BRYKb9yv-4" value="&lt;font style=&quot;font-size: 12px;&quot;&gt;Comprar Eletrodomésticos&lt;/font&gt;" style="ellipse;whiteSpace=wrap;html=1;" vertex="1" parent="1">
          <mxGeometry x="320" y="170" width="100" height="50" as="geometry" />
        </mxCell>
        <mxCell id="dPzqS-fyV155BRYKb9yv-8" style="rounded=0;orthogonalLoop=1;jettySize=auto;html=1;exitX=0;exitY=0.5;exitDx=0;exitDy=0;entryX=0.5;entryY=0.5;entryDx=0;entryDy=0;entryPerimeter=0;startArrow=none;startFill=0;endArrow=none;endFill=0;" edge="1" parent="1" source="dPzqS-fyV155BRYKb9yv-4" target="dPzqS-fyV155BRYKb9yv-1">
          <mxGeometry relative="1" as="geometry" />
        </mxCell>
        <mxCell id="dPzqS-fyV155BRYKb9yv-20" style="rounded=0;orthogonalLoop=1;jettySize=auto;html=1;exitX=1;exitY=0.5;exitDx=0;exitDy=0;endArrow=classic;endFill=1;dashed=1;" edge="1" parent="1" source="dPzqS-fyV155BRYKb9yv-11" target="dPzqS-fyV155BRYKb9yv-14">
          <mxGeometry relative="1" as="geometry" />
        </mxCell>
        <mxCell id="dPzqS-fyV155BRYKb9yv-11" value="Agendar Reparação" style="ellipse;whiteSpace=wrap;html=1;" vertex="1" parent="1">
          <mxGeometry x="314" y="240" width="96" height="50" as="geometry" />
        </mxCell>
        <mxCell id="dPzqS-fyV155BRYKb9yv-13" style="rounded=0;orthogonalLoop=1;jettySize=auto;html=1;exitX=0;exitY=0.5;exitDx=0;exitDy=0;entryX=0.5;entryY=0.5;entryDx=0;entryDy=0;entryPerimeter=0;endArrow=none;endFill=0;" edge="1" parent="1" source="dPzqS-fyV155BRYKb9yv-11" target="dPzqS-fyV155BRYKb9yv-1">
          <mxGeometry relative="1" as="geometry" />
        </mxCell>
        <mxCell id="dPzqS-fyV155BRYKb9yv-14" value="Fazer Pagamento" style="ellipse;whiteSpace=wrap;html=1;" vertex="1" parent="1">
          <mxGeometry x="550" y="270" width="100" height="50" as="geometry" />
        </mxCell>
        <mxCell id="dPzqS-fyV155BRYKb9yv-19" value="&amp;lt;&amp;lt;Include&amp;gt;&amp;gt;" style="text;html=1;align=center;verticalAlign=middle;whiteSpace=wrap;rounded=0;rotation=0;" vertex="1" parent="1">
          <mxGeometry x="455" y="170" width="60" height="30" as="geometry" />
        </mxCell>
        <mxCell id="dPzqS-fyV155BRYKb9yv-21" value="&amp;lt;&amp;lt;Include&amp;gt;&amp;gt;" style="text;html=1;align=center;verticalAlign=middle;whiteSpace=wrap;rounded=0;" vertex="1" parent="1">
          <mxGeometry x="440" y="280" width="60" height="30" as="geometry" />
        </mxCell>
        <mxCell id="dPzqS-fyV155BRYKb9yv-22" value="Preencher Dados" style="ellipse;whiteSpace=wrap;html=1;" vertex="1" parent="1">
          <mxGeometry x="530" y="150" width="100" height="50" as="geometry" />
        </mxCell>
        <mxCell id="dPzqS-fyV155BRYKb9yv-23" style="rounded=0;orthogonalLoop=1;jettySize=auto;html=1;exitX=1;exitY=0.5;exitDx=0;exitDy=0;entryX=0.042;entryY=0.707;entryDx=0;entryDy=0;entryPerimeter=0;dashed=1;endArrow=classic;endFill=1;" edge="1" parent="1" source="dPzqS-fyV155BRYKb9yv-11" target="dPzqS-fyV155BRYKb9yv-22">
          <mxGeometry relative="1" as="geometry" />
        </mxCell>
        <mxCell id="dPzqS-fyV155BRYKb9yv-24" value="&amp;lt;&amp;lt;Include&amp;gt;&amp;gt;" style="text;html=1;align=center;verticalAlign=middle;whiteSpace=wrap;rounded=0;rotation=0;" vertex="1" parent="1">
          <mxGeometry x="500" y="230" width="60" height="30" as="geometry" />
        </mxCell>
        <mxCell id="dPzqS-fyV155BRYKb9yv-28" style="rounded=0;orthogonalLoop=1;jettySize=auto;html=1;exitX=1;exitY=0.5;exitDx=0;exitDy=0;entryX=0;entryY=0.5;entryDx=0;entryDy=0;dashed=1;endArrow=none;endFill=0;startArrow=classic;startFill=1;" edge="1" parent="1" source="dPzqS-fyV155BRYKb9yv-25" target="dPzqS-fyV155BRYKb9yv-27">
          <mxGeometry relative="1" as="geometry" />
        </mxCell>
        <mxCell id="dPzqS-fyV155BRYKb9yv-25" value="Geestão de Marcações" style="ellipse;whiteSpace=wrap;html=1;" vertex="1" parent="1">
          <mxGeometry x="318" y="320" width="96" height="50" as="geometry" />
        </mxCell>
        <mxCell id="dPzqS-fyV155BRYKb9yv-26" style="rounded=0;orthogonalLoop=1;jettySize=auto;html=1;exitX=0;exitY=0.5;exitDx=0;exitDy=0;entryX=0.5;entryY=0.5;entryDx=0;entryDy=0;entryPerimeter=0;endArrow=none;endFill=0;" edge="1" parent="1" source="dPzqS-fyV155BRYKb9yv-25" target="dPzqS-fyV155BRYKb9yv-2">
          <mxGeometry relative="1" as="geometry" />
        </mxCell>
        <mxCell id="dPzqS-fyV155BRYKb9yv-54" style="rounded=0;orthogonalLoop=1;jettySize=auto;html=1;exitX=0.5;exitY=1;exitDx=0;exitDy=0;entryX=1;entryY=0.5;entryDx=0;entryDy=0;dashed=1;startArrow=classic;startFill=1;endArrow=none;endFill=0;" edge="1" parent="1" source="dPzqS-fyV155BRYKb9yv-27" target="dPzqS-fyV155BRYKb9yv-48">
          <mxGeometry relative="1" as="geometry" />
        </mxCell>
        <mxCell id="dPzqS-fyV155BRYKb9yv-27" value="Visualizar Marcações" style="ellipse;whiteSpace=wrap;html=1;" vertex="1" parent="1">
          <mxGeometry x="600" y="340" width="100" height="50" as="geometry" />
        </mxCell>
        <mxCell id="dPzqS-fyV155BRYKb9yv-29" value="&amp;lt;&amp;lt;Extend&amp;gt;&amp;gt;" style="text;html=1;align=center;verticalAlign=middle;whiteSpace=wrap;rounded=0;" vertex="1" parent="1">
          <mxGeometry x="490" y="320" width="60" height="30" as="geometry" />
        </mxCell>
        <mxCell id="dPzqS-fyV155BRYKb9yv-33" style="rounded=0;orthogonalLoop=1;jettySize=auto;html=1;exitX=0;exitY=0.5;exitDx=0;exitDy=0;entryX=1;entryY=0.5;entryDx=0;entryDy=0;dashed=1;" edge="1" parent="1" source="dPzqS-fyV155BRYKb9yv-32" target="dPzqS-fyV155BRYKb9yv-25">
          <mxGeometry relative="1" as="geometry" />
        </mxCell>
        <mxCell id="dPzqS-fyV155BRYKb9yv-32" value="Definir Estado" style="ellipse;whiteSpace=wrap;html=1;" vertex="1" parent="1">
          <mxGeometry x="510" y="400" width="100" height="50" as="geometry" />
        </mxCell>
        <mxCell id="dPzqS-fyV155BRYKb9yv-34" value="&amp;lt;&amp;lt;Extend&amp;gt;&amp;gt;" style="text;html=1;align=center;verticalAlign=middle;whiteSpace=wrap;rounded=0;" vertex="1" parent="1">
          <mxGeometry x="414" y="390" width="60" height="30" as="geometry" />
        </mxCell>
        <mxCell id="dPzqS-fyV155BRYKb9yv-40" style="rounded=0;orthogonalLoop=1;jettySize=auto;html=1;exitX=1;exitY=0.5;exitDx=0;exitDy=0;dashed=1;" edge="1" parent="1" source="dPzqS-fyV155BRYKb9yv-35" target="dPzqS-fyV155BRYKb9yv-39">
          <mxGeometry relative="1" as="geometry" />
        </mxCell>
        <mxCell id="dPzqS-fyV155BRYKb9yv-49" style="rounded=0;orthogonalLoop=1;jettySize=auto;html=1;exitX=1;exitY=1;exitDx=0;exitDy=0;entryX=0;entryY=0.5;entryDx=0;entryDy=0;dashed=1;" edge="1" parent="1" source="dPzqS-fyV155BRYKb9yv-35" target="dPzqS-fyV155BRYKb9yv-48">
          <mxGeometry relative="1" as="geometry" />
        </mxCell>
        <mxCell id="dPzqS-fyV155BRYKb9yv-35" value="Realizar Diagnóstico" style="ellipse;whiteSpace=wrap;html=1;" vertex="1" parent="1">
          <mxGeometry x="320" y="450" width="96" height="50" as="geometry" />
        </mxCell>
        <mxCell id="dPzqS-fyV155BRYKb9yv-38" style="rounded=0;orthogonalLoop=1;jettySize=auto;html=1;exitX=0;exitY=0.5;exitDx=0;exitDy=0;entryX=0.5;entryY=0.5;entryDx=0;entryDy=0;entryPerimeter=0;endArrow=none;endFill=0;" edge="1" parent="1" source="dPzqS-fyV155BRYKb9yv-35" target="dPzqS-fyV155BRYKb9yv-2">
          <mxGeometry relative="1" as="geometry" />
        </mxCell>
        <mxCell id="dPzqS-fyV155BRYKb9yv-39" value="Comunicar Problema" style="ellipse;whiteSpace=wrap;html=1;" vertex="1" parent="1">
          <mxGeometry x="490" y="470" width="100" height="50" as="geometry" />
        </mxCell>
        <mxCell id="dPzqS-fyV155BRYKb9yv-41" value="&amp;lt;&amp;lt;Include&amp;gt;&amp;gt;" style="text;html=1;align=center;verticalAlign=middle;whiteSpace=wrap;rounded=0;" vertex="1" parent="1">
          <mxGeometry x="430" y="450" width="60" height="30" as="geometry" />
        </mxCell>
        <mxCell id="dPzqS-fyV155BRYKb9yv-48" value="Ir para a morada" style="ellipse;whiteSpace=wrap;html=1;" vertex="1" parent="1">
          <mxGeometry x="474" y="535" width="100" height="50" as="geometry" />
        </mxCell>
        <mxCell id="dPzqS-fyV155BRYKb9yv-52" value="&amp;lt;&amp;lt;Include&amp;gt;&amp;gt;" style="text;html=1;align=center;verticalAlign=middle;whiteSpace=wrap;rounded=0;" vertex="1" parent="1">
          <mxGeometry x="380" y="520" width="60" height="30" as="geometry" />
        </mxCell>
        <mxCell id="dPzqS-fyV155BRYKb9yv-55" value="&amp;lt;&amp;lt;Include&amp;gt;&amp;gt;" style="text;html=1;align=center;verticalAlign=middle;whiteSpace=wrap;rounded=0;" vertex="1" parent="1">
          <mxGeometry x="620" y="470" width="60" height="30" as="geometry" />
        </mxCell>
        <mxCell id="dPzqS-fyV155BRYKb9yv-57" style="rounded=0;orthogonalLoop=1;jettySize=auto;html=1;exitX=0;exitY=0.5;exitDx=0;exitDy=0;endArrow=none;endFill=0;" edge="1" parent="1" source="dPzqS-fyV155BRYKb9yv-56" target="dPzqS-fyV155BRYKb9yv-2">
          <mxGeometry relative="1" as="geometry" />
        </mxCell>
        <mxCell id="dPzqS-fyV155BRYKb9yv-56" value="Reparação Eletrodoméstico" style="ellipse;whiteSpace=wrap;html=1;" vertex="1" parent="1">
          <mxGeometry x="320" y="600" width="96" height="50" as="geometry" />
        </mxCell>
        <mxCell id="dPzqS-fyV155BRYKb9yv-59" style="rounded=0;orthogonalLoop=1;jettySize=auto;html=1;exitX=0;exitY=0.5;exitDx=0;exitDy=0;shadow=1;dashed=1;" edge="1" parent="1" source="dPzqS-fyV155BRYKb9yv-58" target="dPzqS-fyV155BRYKb9yv-56">
          <mxGeometry relative="1" as="geometry" />
        </mxCell>
        <mxCell id="dPzqS-fyV155BRYKb9yv-58" value="Autorização do Cliente" style="ellipse;whiteSpace=wrap;html=1;" vertex="1" parent="1">
          <mxGeometry x="500" y="630" width="100" height="50" as="geometry" />
        </mxCell>
        <mxCell id="dPzqS-fyV155BRYKb9yv-61" value="&amp;lt;&amp;lt;Extend&amp;gt;&amp;gt;" style="text;html=1;align=center;verticalAlign=middle;whiteSpace=wrap;rounded=0;" vertex="1" parent="1">
          <mxGeometry x="440" y="620" width="60" height="30" as="geometry" />
        </mxCell>
        <mxCell id="dPzqS-fyV155BRYKb9yv-63" value="Sistema" style="text;html=1;align=center;verticalAlign=middle;whiteSpace=wrap;rounded=0;" vertex="1" parent="1">
          <mxGeometry x="460" y="100" width="60" height="30" as="geometry" />
        </mxCell>
      </root>
    </mxGraphModel>
  </diagram>
</mxfile>
